<svg width="24" height="24" viewBox="0 0 24 24" fill="none" xmlns="http://www.w3.org/2000/svg">
<path d="M20.0781 19.2188C19.6406 18.9453 19.5703 18.4063 19.875 17.9219C20.9844 16.1719 21.6641 14.0157 21.6641 11.6719C21.6641 9.32816 20.9844 7.18753 19.875 5.42972C19.5703 4.93753 19.6406 4.39847 20.0781 4.13284C20.4922 3.87503 21.0156 3.99222 21.2891 4.4219C22.5938 6.47659 23.3906 8.96097 23.3906 11.6719C23.3906 14.3907 22.6094 16.875 21.2891 18.9219C21.0156 19.3516 20.4922 19.4688 20.0781 19.2188ZM9.85938 18.4063C9.42969 18.4063 9.09375 18.2422 8.67969 17.8516L5.66406 15.0157C5.61719 14.9766 5.57031 14.961 5.51562 14.961H3.45312C2.25781 14.961 1.60938 14.2969 1.60938 13.0469V10.3125C1.60938 9.06253 2.25781 8.39066 3.45312 8.39066H5.51562C5.57031 8.39066 5.625 8.36722 5.66406 8.32816L8.67969 5.51565C9.125 5.10159 9.4375 4.93753 9.85156 4.93753C10.5 4.93753 10.9766 5.43753 10.9766 6.07034V17.2969C10.9766 17.9297 10.5 18.4063 9.85938 18.4063ZM16.8438 17.1641C16.3906 16.8907 16.3359 16.3438 16.6406 15.8516C17.3984 14.6875 17.8438 13.211 17.8438 11.6641C17.8438 10.1172 17.4062 8.64066 16.6406 7.47659C16.3281 6.98441 16.3906 6.43753 16.8438 6.16409C17.25 5.92191 17.7578 6.01566 18.0234 6.42972C19.0156 7.85941 19.5703 9.72659 19.5703 11.6641C19.5703 13.5938 19.0078 15.461 18.0234 16.8985C17.7578 17.3125 17.25 17.4063 16.8438 17.1641ZM13.5938 15.125C13.1562 14.8438 13.0703 14.3203 13.4219 13.7578C13.7969 13.1797 14.0156 12.4453 14.0156 11.6641C14.0156 10.8828 13.8047 10.1407 13.4219 9.57034C13.0625 9.00784 13.1562 8.48441 13.5938 8.21097C13.9844 7.95316 14.4844 8.04691 14.75 8.41409C15.375 9.28128 15.75 10.4453 15.75 11.6641C15.75 12.8828 15.375 14.0469 14.75 14.9063C14.4844 15.2735 13.9844 15.3672 13.5938 15.125Z" fill="white" fill-opacity="0.9"/>
</svg>
