<svg width="24" height="24" viewBox="0 0 24 24" fill="none" xmlns="http://www.w3.org/2000/svg">
<path d="M9.39062 6.21094C7.07031 6.21094 5.64844 7.625 5.64844 9.92969V15.9297H5.45312C3.83594 15.8984 2.96875 15.0156 2.96875 13.3828V6.29688C2.96875 4.64062 3.86719 3.74219 5.53906 3.74219H15.5625C17.1797 3.74219 18.0703 4.57812 18.125 6.14062V6.21094H9.39062ZM9.39062 19.5703C7.71875 19.5703 6.82031 18.6797 6.82031 17.0234V9.92969C6.82031 8.27344 7.71875 7.38281 9.39062 7.38281H19.4609C21.125 7.38281 22.0312 8.28125 22.0312 9.92969V17.0234C22.0312 18.6719 21.125 19.5703 19.4609 19.5703H9.39062ZM12.5078 13.4922C13.3438 13.4922 14.0391 12.7969 14.0391 11.9531C14.0391 11.1172 13.3438 10.4141 12.5078 10.4141C11.6562 10.4141 10.9688 11.1172 10.9688 11.9531C10.9688 12.7969 11.6562 13.4922 12.5078 13.4922ZM9.57031 17.7734H19.2812C19.8906 17.7734 20.2266 17.4688 20.2266 16.8203V15.7969L17.6016 13.3516C17.3359 13.1016 17.0156 12.9766 16.6719 12.9766C16.3438 12.9766 16.0312 13.0938 15.75 13.3438L12.9375 15.8281L11.8125 14.8125C11.5547 14.5781 11.2734 14.4688 10.9766 14.4688C10.7031 14.4688 10.4219 14.5781 10.1719 14.8047L8.625 16.1875V16.8203C8.625 17.4688 8.95312 17.7734 9.57031 17.7734Z" fill="white" fill-opacity="0.9"/>
</svg>
