<svg width="24" height="24" viewBox="0 0 24 24" fill="none" xmlns="http://www.w3.org/2000/svg">
<path d="M12.4922 19.4297C8.23438 19.4297 4.72656 15.9297 4.72656 11.6641C4.72656 7.40625 8.23438 3.89844 12.4922 3.89844C16.75 3.89844 20.2656 7.40625 20.2656 11.6641C20.2656 15.9297 16.7578 19.4297 12.4922 19.4297ZM9.46094 9.79688L11.7812 5.78906C10.2031 5.96875 8.82812 6.77344 7.88281 7.94531L9.21875 10.2578C9.28906 10.0938 9.36719 9.94531 9.46094 9.79688ZM12.5156 8.09375H17.2266C16.3203 6.89844 14.9688 6.05469 13.4062 5.8125L12.0781 8.11719C12.2109 8.10156 12.3516 8.09375 12.4922 8.09375C12.5 8.09375 12.5078 8.09375 12.5156 8.09375ZM6.57812 11.6641C6.57812 12.4219 6.71875 13.1484 6.97656 13.8125H9.65625C9.53125 13.6484 9.42188 13.4766 9.32812 13.2969L7.04688 9.34375C6.74219 10.0547 6.57812 10.8359 6.57812 11.6641ZM18.4219 11.6641C18.4219 10.9062 18.2734 10.1797 18.0156 9.51562H15.3438C15.4766 9.6875 15.5938 9.88281 15.6875 10.0781L17.9453 13.9922C18.25 13.2812 18.4219 12.4922 18.4219 11.6641ZM12.4922 13.8125C13.2422 13.8125 13.9062 13.4219 14.2969 12.8281V12.8203C14.5156 12.4844 14.6406 12.0859 14.6406 11.6641C14.6406 11.3438 14.5703 11.0391 14.4453 10.7656L14.4219 10.7344H14.4297C14.0781 10.0156 13.3359 9.51562 12.4922 9.51562C11.3281 9.51562 10.3438 10.4922 10.3438 11.6641C10.3438 12.8281 11.3359 13.8125 12.4922 13.8125ZM15.5312 13.5312L13.2031 17.5469C14.7812 17.3594 16.1641 16.5625 17.1094 15.3906L15.7734 13.0703C15.7031 13.2344 15.625 13.3828 15.5312 13.5312ZM12.4922 15.2422C12.4844 15.2422 12.4766 15.2422 12.4688 15.2422L7.76562 15.2344C8.66406 16.4375 10.0234 17.2812 11.5781 17.5234L12.9141 15.2109C12.7734 15.2344 12.6406 15.2422 12.4922 15.2422Z" fill="#EBEBF5" fill-opacity="0.6"/>
</svg>
