<svg width="24" height="24" viewBox="0 0 24 24" fill="none" xmlns="http://www.w3.org/2000/svg">
<path d="M7.28906 4.27344C7.35156 3.57812 7.78125 3.19531 8.52344 3.19531H15.4688C16.2109 3.19531 16.6484 3.57812 16.7031 4.27344H7.28906ZM5.8125 6.52344C5.90625 5.78906 6.30469 5.34375 7.14844 5.34375H16.8438C17.6953 5.34375 18.0859 5.78906 18.1875 6.52344H5.8125ZM6.73438 20.125C5.125 20.125 4.25781 19.2578 4.25781 17.6641V10.2031C4.25781 8.60938 5.125 7.74219 6.73438 7.74219H17.25C18.8594 7.74219 19.7266 8.61719 19.7266 10.2031V17.6641C19.7266 19.2578 18.8594 20.125 17.25 20.125H6.73438Z" fill="white" fill-opacity="0.9"/>
</svg>
